<svg version="1.1" id="Layer_1" xmlns="http://www.w3.org/2000/svg" xmlns:xlink="http://www.w3.org/1999/xlink" x="0px" y="0px"
	 width="100%" viewBox="0 0 2019 2019" enable-background="new 0 0 2019 2019" xml:space="preserve">
<path fill="#FFFFFF" opacity="1.000000" stroke="none" 
	d="
M215.000000,1.000000 
	C816.628601,1.000000 1418.257202,1.000000 2019.942871,1.000000 
	C2019.942871,673.919373 2019.942871,1346.838745 2019.942871,2019.879150 
	C1347.123169,2019.879150 674.246338,2019.879150 1.000000,2019.879150 
	C1.000000,1872.298584 1.000000,1724.596924 1.210282,1576.461670 
	C1.420564,1576.028198 1.841511,1576.050049 1.898799,1576.464966 
	C3.748942,1594.321655 11.896480,1608.086914 26.297617,1617.972168 
	C36.465412,1624.951416 47.979683,1627.794189 60.258659,1627.789673 
	C103.423019,1627.773682 146.587402,1627.809204 189.751694,1627.748535 
	C194.732803,1627.741577 199.734421,1627.461304 204.690399,1626.954468 
	C227.375244,1624.634155 248.541290,1605.724121 251.789703,1583.113525 
	C253.598099,1570.526245 252.980499,1557.547607 252.952988,1544.746338 
	C252.750961,1450.761597 252.349594,1356.777344 252.153412,1262.792725 
	C251.968002,1173.966309 251.950012,1085.139771 251.893692,996.313232 
	C251.891800,993.327820 251.953522,990.279358 252.526382,987.366638 
	C257.166992,963.770508 272.805939,948.432007 297.149719,943.407959 
	C318.637573,938.973267 339.571869,947.703552 352.509552,966.768311 
	C382.357361,1010.751404 414.030945,1053.351074 448.193237,1094.093750 
	C482.993835,1135.597534 519.627136,1175.362915 558.809143,1212.799072 
	C588.910217,1241.558838 619.636169,1269.615356 652.513489,1295.144653 
	C681.658936,1317.776001 711.059937,1340.148315 741.258484,1361.337646 
	C791.369019,1396.498291 843.820740,1427.974365 898.644897,1455.258179 
	C931.198853,1471.458862 964.010071,1487.269165 997.420166,1501.587769 
	C1030.903809,1515.937744 1064.995972,1529.005127 1099.342529,1541.162354 
	C1129.220947,1551.738159 1159.660522,1560.838379 1190.144165,1569.571045 
	C1258.472168,1589.144531 1327.907227,1603.995972 1398.329346,1613.397827 
	C1444.612183,1619.577026 1491.186890,1623.977051 1537.760010,1627.434326 
	C1569.088623,1629.760132 1600.640747,1629.369019 1632.097168,1629.593018 
	C1657.905273,1629.776978 1681.330566,1608.915283 1685.060913,1583.338013 
	C1685.539917,1580.054443 1685.956055,1576.723877 1685.960449,1573.414551 
	C1686.019653,1529.416870 1686.069336,1485.419189 1685.973755,1441.421631 
	C1685.916016,1414.900513 1668.796021,1392.488892 1643.289795,1386.904419 
	C1633.174194,1384.689575 1622.504395,1384.969360 1612.079712,1384.211548 
	C1579.419067,1381.837036 1546.704102,1380.052979 1514.107910,1376.997314 
	C1486.352173,1374.395264 1458.539795,1371.455322 1431.096069,1366.687134 
	C1389.114990,1359.392944 1347.181641,1351.472534 1305.669434,1341.903198 
	C1215.863770,1321.201050 1129.383423,1290.546997 1046.130615,1251.003296 
	C990.760986,1224.703735 937.660828,1194.362671 886.805054,1160.081055 
	C821.185120,1115.846924 760.567078,1065.560791 704.505188,1009.782043 
	C689.166504,994.520935 674.507385,978.562317 659.837158,962.646667 
	C621.285461,920.822021 586.144043,876.236572 553.494995,829.695312 
	C503.734589,758.761841 460.594360,683.960815 423.247742,605.787354 
	C392.062866,540.511536 365.120209,473.529114 341.948669,405.014709 
	C319.327911,338.128998 300.074646,270.272003 285.431396,201.211777 
	C276.916565,161.054230 270.234161,120.505318 262.922150,80.097252 
	C260.643341,67.504128 259.966919,54.552200 256.848999,42.195507 
	C251.863495,22.437578 239.450226,9.011804 218.946777,3.643987 
	C217.547150,2.551960 216.273575,1.775980 215.000000,1.000000 
M556.782410,401.736908 
	C573.773438,452.460358 593.693787,502.009308 616.775330,550.263916 
	C642.475952,603.994019 671.986145,655.537048 705.647522,704.712585 
	C745.027161,762.241882 789.652161,815.357544 840.547852,862.944641 
	C864.085266,884.951965 889.074829,905.493713 914.267273,925.621887 
	C947.287170,952.003784 982.861694,974.791199 1019.690063,995.484436 
	C1050.409790,1012.745239 1082.037231,1028.241821 1114.510376,1042.019043 
	C1149.359741,1056.804443 1184.886841,1069.673828 1221.176758,1080.366455 
	C1308.962280,1106.232178 1398.705444,1120.901367 1490.012939,1125.794434 
	C1523.904663,1127.610596 1557.878662,1127.991821 1591.821899,1128.701416 
	C1604.358643,1128.963501 1616.751953,1127.655273 1627.904541,1120.900513 
	C1648.114380,1108.660034 1657.190552,1090.605713 1657.184937,1067.175293 
	C1657.107422,739.023926 1657.134277,410.872559 1657.110474,82.721184 
	C1657.110229,78.898361 1657.176514,75.007774 1656.538696,71.263458 
	C1651.288818,40.438148 1628.221924,21.265478 1596.341675,21.214235 
	C1556.510376,21.150213 1516.678589,21.144943 1476.847534,21.265362 
	C1471.726807,21.280842 1466.487671,21.665514 1461.509644,22.791361 
	C1433.486450,29.129240 1415.869141,51.513996 1415.868896,80.379951 
	C1415.866699,320.368744 1415.917480,560.357605 1415.665405,800.346191 
	C1415.656372,808.962036 1413.822876,817.998962 1410.846680,826.108154 
	C1402.417725,849.074097 1375.382446,864.212524 1351.355957,860.229309 
	C1342.197876,858.710999 1333.062866,856.923340 1324.036621,854.760376 
	C1263.382446,840.226074 1205.914795,817.544800 1151.558472,786.960144 
	C1082.423462,748.059998 1022.120789,698.290344 969.569946,639.006958 
	C924.693359,588.381165 887.383118,532.562744 856.015076,472.712891 
	C825.000061,413.536530 800.583313,351.673157 781.015320,287.843079 
	C759.762146,218.515778 744.447083,147.863434 734.020264,76.146454 
	C731.432861,58.350109 724.509033,43.418224 709.840942,32.464497 
	C697.753662,23.438095 683.901978,21.160872 669.321167,21.183659 
	C637.822693,21.232883 606.323914,21.141211 574.825623,21.228802 
	C563.177734,21.261192 551.491943,21.107302 539.891113,21.959192 
	C512.812012,23.947706 491.558929,43.710953 488.007629,70.872971 
	C486.844025,79.772705 487.727631,89.158295 489.031494,98.124435 
	C494.510498,135.801620 499.549622,173.581741 506.519501,210.994476 
	C518.537048,275.501648 535.540100,338.794403 556.782410,401.736908 
M1173.848145,120.535416 
	C1173.277466,101.565010 1172.651123,82.596046 1172.160522,63.623573 
	C1171.934448,54.888374 1167.906494,48.670765 1160.043457,45.174240 
	C1152.130249,41.655411 1144.697388,43.173428 1138.225098,48.710087 
	C1131.525146,54.441372 1125.069946,60.458218 1118.494141,66.335121 
	C1098.391113,84.301788 1078.291870,102.272827 1058.171631,120.220222 
	C1038.176270,138.056213 1018.149353,155.856735 998.150818,173.689072 
	C978.152222,191.521515 958.268066,209.483948 938.143005,227.172348 
	C927.796753,236.265915 926.357605,248.441681 935.459167,258.773834 
	C955.048523,281.011749 974.825867,303.084320 994.561584,325.193024 
	C1017.734863,351.152740 1040.960327,377.065735 1064.136230,403.023132 
	C1091.413696,433.574402 1118.631470,464.179077 1145.945679,494.697388 
	C1152.379517,501.885834 1160.674805,504.139893 1168.391357,501.240814 
	C1177.108765,497.965729 1182.167480,490.597107 1181.961426,480.638000 
	C1181.461792,456.499786 1180.729248,432.366516 1180.153442,408.229706 
	C1179.446411,378.596069 1178.817017,348.960541 1178.128906,319.326416 
	C1177.483276,291.524658 1176.748169,263.724884 1176.154541,235.922028 
	C1175.340332,197.791031 1174.622192,159.657974 1173.848145,120.535416 
M112.724274,1833.868896 
	C119.488739,1847.426147 126.125771,1861.048828 133.056198,1874.520752 
	C139.082993,1886.235718 145.565765,1897.703735 155.052643,1907.098511 
	C165.167313,1917.114746 177.249069,1921.223145 191.854630,1919.166382 
	C191.854630,1917.056030 191.854630,1915.093140 191.854630,1913.130127 
	C191.854630,1860.641602 191.854691,1808.153076 191.854523,1755.664551 
	C191.854507,1750.332397 191.958496,1744.997681 191.825943,1739.668701 
	C191.656174,1732.843750 187.001373,1727.260254 180.446396,1726.528809 
	C176.224625,1726.057739 171.907608,1726.440308 167.043152,1726.440308 
	C167.043152,1779.775024 167.043152,1832.591187 167.043152,1885.407349 
	C162.980118,1880.767700 159.742691,1875.961426 157.183777,1870.817505 
	C139.461487,1835.193115 122.024216,1799.426025 104.134415,1763.886475 
	C100.499413,1756.665283 95.868927,1749.778198 90.760956,1743.498657 
	C78.377663,1728.275513 61.823841,1723.903320 42.650856,1726.682251 
	C42.571964,1728.177124 42.426849,1729.646973 42.426552,1731.116943 
	C42.415123,1787.604614 42.409779,1844.092285 42.442577,1900.579956 
	C42.443924,1902.898560 42.593121,1905.264526 43.066727,1907.526001 
	C44.201614,1912.945312 47.208069,1917.412231 52.618660,1918.701172 
	C57.467545,1919.856079 62.674965,1919.505615 68.211472,1919.849731 
	C68.211472,1864.521606 68.211472,1810.159180 68.211472,1755.796753 
	C68.662384,1755.592407 69.113304,1755.388184 69.564217,1755.183960 
	C74.169342,1762.021362 79.422112,1768.516357 83.253723,1775.762695 
	C93.286972,1794.738037 102.699776,1814.041382 112.724274,1833.868896 
M1221.003052,1776.500000 
	C1221.020142,1764.170288 1221.055664,1751.840698 1221.046875,1739.510986 
	C1221.042358,1733.021851 1217.049194,1727.340210 1210.910522,1726.513184 
	C1205.756348,1725.818848 1200.434326,1726.370483 1194.837036,1726.370483 
	C1194.837036,1753.183350 1194.837036,1779.452637 1194.837036,1805.817383 
	C1162.422119,1805.817383 1130.380371,1805.817383 1098.003174,1805.817383 
	C1098.003174,1803.691284 1098.003296,1801.885864 1098.003296,1800.080444 
	C1098.003174,1780.085938 1098.026489,1760.091431 1097.990601,1740.096924 
	C1097.977783,1732.907227 1094.013916,1726.985596 1088.109863,1726.370605 
	C1082.745117,1725.811890 1077.276245,1726.252319 1071.650391,1726.252319 
	C1071.556885,1728.273926 1071.429443,1729.748535 1071.429077,1731.223022 
	C1071.418945,1787.041016 1071.414307,1842.858887 1071.443237,1898.676880 
	C1071.444458,1900.998047 1071.594360,1903.350220 1071.986450,1905.634277 
	C1073.168579,1912.519775 1077.180420,1917.344971 1083.903809,1918.923340 
	C1088.301636,1919.955933 1093.042969,1919.526245 1098.197754,1919.779297 
	C1098.197754,1889.626343 1098.197754,1860.236938 1098.197754,1830.886475 
	C1130.679443,1830.886475 1162.606445,1830.886475 1194.996826,1830.886475 
	C1194.996826,1832.949951 1194.996704,1834.746216 1194.996704,1836.542603 
	C1194.996704,1857.203613 1195.498291,1877.880981 1194.822144,1898.519775 
	C1194.364624,1912.482422 1204.032959,1922.791870 1221.003052,1918.866943 
	C1221.003052,1871.786499 1221.003052,1824.643311 1221.003052,1776.500000 
M659.736816,1756.721802 
	C656.468628,1751.114502 653.324280,1745.430542 649.905029,1739.916870 
	C643.807922,1730.085327 635.444336,1724.314453 623.324097,1726.220947 
	C621.447510,1726.516113 619.100647,1727.476685 618.079407,1728.916016 
	C613.846191,1734.882202 609.575745,1740.904053 606.149109,1747.346924 
	C583.511658,1789.911377 568.080933,1835.221558 555.996277,1881.718384 
	C553.715149,1890.495483 552.877380,1899.720581 552.143738,1908.801147 
	C551.666565,1914.705933 555.303528,1918.839722 560.600159,1919.405640 
	C564.849854,1919.859619 569.186829,1919.497437 573.205139,1919.497437 
	C577.009766,1904.219604 580.727112,1889.387939 584.377014,1874.539795 
	C584.979248,1872.089966 585.648438,1870.520020 588.852356,1870.537109 
	C616.513184,1870.684204 644.175049,1870.646973 671.836426,1870.581909 
	C674.414429,1870.575806 675.586914,1871.312134 676.251648,1874.000977 
	C678.965515,1884.978882 682.083496,1895.856201 684.858215,1906.819824 
	C686.270874,1912.401367 689.115295,1917.000000 694.746765,1918.298950 
	C700.237976,1919.565552 706.040222,1919.483521 712.581848,1920.072632 
	C702.428894,1862.498413 684.068481,1809.041748 659.736816,1756.721802 
M1637.405762,1883.654541 
	C1633.806152,1891.583130 1627.569092,1896.347046 1619.076294,1897.377563 
	C1605.224121,1899.058105 1591.814819,1897.898071 1580.260498,1888.767456 
	C1579.710693,1888.333008 1578.904785,1888.223022 1578.167847,1887.942871 
	C1574.753418,1903.575684 1580.980591,1915.481934 1595.539917,1920.066406 
	C1601.139038,1921.829590 1607.292969,1922.477539 1613.199951,1922.508057 
	C1642.473511,1922.659790 1663.782715,1903.260620 1665.939575,1874.124512 
	C1666.933838,1860.694702 1666.767456,1847.166626 1666.819458,1833.681885 
	C1666.934570,1803.851929 1666.876465,1774.021240 1666.841919,1744.190796 
	C1666.830444,1734.244629 1663.413574,1728.428101 1655.858521,1726.883667 
	C1651.114258,1725.913818 1646.103149,1726.249634 1640.994507,1725.988525 
	C1640.994507,1728.732300 1640.994507,1730.559326 1640.994507,1732.386475 
	C1640.994507,1774.882324 1641.153931,1817.379272 1640.848267,1859.872925 
	C1640.792847,1867.578003 1638.832031,1875.269409 1637.405762,1883.654541 
z"/>
<path fill="#F0E3D8" opacity="1.000000" stroke="none" 
	d="
M1.841512,1576.050049 
	C1.841511,1576.050049 1.420564,1576.028198 1.210282,1576.014160 
	C1.000000,1068.298462 1.000000,560.596863 1.214176,52.425858 
	C1.428353,51.956448 1.858914,51.956230 1.913884,52.425423 
	C1.978950,53.727615 1.997890,54.560616 1.997893,55.393612 
	C1.999256,560.782532 1.999457,1066.171509 1.992913,1571.560425 
	C1.992893,1573.057007 1.894148,1574.553467 1.841512,1576.050049 
z"/>
<path fill="#FEFDFD" opacity="1.000000" stroke="none" 
	d="
M1.858914,51.956230 
	C1.858914,51.956230 1.428353,51.956448 1.214176,51.978226 
	C1.000000,35.077847 1.000000,18.155695 1.000000,1.000000 
	C15.686736,1.000000 30.374710,1.000000 45.557999,1.277265 
	C46.049362,1.740183 46.045410,1.925837 45.694290,2.116610 
	C44.891476,2.201492 44.435841,2.281255 43.703896,2.269973 
	C42.963512,2.459078 42.499439,2.739227 41.771790,3.042741 
	C41.338234,3.113331 41.168266,3.160555 40.705528,3.151113 
	C39.940121,3.394670 39.467484,3.694892 38.741730,4.027958 
	C38.325695,4.109883 38.162769,4.158964 37.714321,4.153936 
	C36.997654,4.423079 36.566513,4.746331 35.849228,5.131742 
	C35.377155,5.253407 35.191235,5.312913 34.773018,5.329583 
	C34.202675,5.396610 34.010201,5.627778 33.719452,6.050194 
	C33.320560,6.187682 33.165516,6.255225 32.773872,6.297697 
	C32.201923,6.391669 32.010571,6.627592 31.719624,7.050269 
	C31.321182,7.187692 31.166332,7.255240 30.776669,7.299233 
	C30.213171,7.404154 30.030725,7.643969 29.738003,8.091311 
	C29.322758,8.277846 29.164028,8.368191 28.802362,8.428741 
	C28.312338,8.527676 28.178188,8.749195 27.877171,9.185863 
	C12.249405,19.461805 3.732454,33.707455 1.858914,51.956230 
z"/>
<path fill="#CEA684" opacity="1.000000" stroke="none" 
	d="
M46.041462,2.111490 
	C46.045410,1.925837 46.049362,1.740183 46.026657,1.277265 
	C102.020897,1.000000 158.041794,1.000000 214.531342,1.000000 
	C216.273575,1.775980 217.547150,2.551960 218.540848,3.628884 
	C214.025818,3.285658 209.792068,2.092045 205.555283,2.081095 
	C155.274445,1.951141 104.993141,1.995680 54.711960,2.002539 
	C51.821789,2.002934 48.931629,2.073553 46.041462,2.111490 
z"/>
<path fill="#C48F62" opacity="1.000000" stroke="none" 
	d="
M45.694290,2.116610 
	C48.931629,2.073553 51.821789,2.002934 54.711960,2.002539 
	C104.993141,1.995680 155.274445,1.951141 205.555283,2.081095 
	C209.792068,2.092045 214.025818,3.285658 218.666901,3.944932 
	C239.450226,9.011804 251.863495,22.437578 256.848999,42.195507 
	C259.966919,54.552200 260.643341,67.504128 262.922150,80.097252 
	C270.234161,120.505318 276.916565,161.054230 285.431396,201.211777 
	C300.074646,270.272003 319.327911,338.128998 341.948669,405.014709 
	C365.120209,473.529114 392.062866,540.511536 423.247742,605.787354 
	C460.594360,683.960815 503.734589,758.761841 553.494995,829.695312 
	C586.144043,876.236572 621.285461,920.822021 659.837158,962.646667 
	C674.507385,978.562317 689.166504,994.520935 704.505188,1009.782043 
	C760.567078,1065.560791 821.185120,1115.846924 886.805054,1160.081055 
	C937.660828,1194.362671 990.760986,1224.703735 1046.130615,1251.003296 
	C1129.383423,1290.546997 1215.863770,1321.201050 1305.669434,1341.903198 
	C1347.181641,1351.472534 1389.114990,1359.392944 1431.096069,1366.687134 
	C1458.539795,1371.455322 1486.352173,1374.395264 1514.107910,1376.997314 
	C1546.704102,1380.052979 1579.419067,1381.837036 1612.079712,1384.211548 
	C1622.504395,1384.969360 1633.174194,1384.689575 1643.289795,1386.904419 
	C1668.796021,1392.488892 1685.916016,1414.900513 1685.973755,1441.421631 
	C1686.069336,1485.419189 1686.019653,1529.416870 1685.960449,1573.414551 
	C1685.956055,1576.723877 1685.539917,1580.054443 1685.060913,1583.338013 
	C1681.330566,1608.915283 1657.905273,1629.776978 1632.097168,1629.593018 
	C1600.640747,1629.369019 1569.088623,1629.760132 1537.760010,1627.434326 
	C1491.186890,1623.977051 1444.612183,1619.577026 1398.329346,1613.397827 
	C1327.907227,1603.995972 1258.472168,1589.144531 1190.144165,1569.571045 
	C1159.660522,1560.838379 1129.220947,1551.738159 1099.342529,1541.162354 
	C1064.995972,1529.005127 1030.903809,1515.937744 997.420166,1501.587769 
	C964.010071,1487.269165 931.198853,1471.458862 898.644897,1455.258179 
	C843.820740,1427.974365 791.369019,1396.498291 741.258484,1361.337646 
	C711.059937,1340.148315 681.658936,1317.776001 652.513489,1295.144653 
	C619.636169,1269.615356 588.910217,1241.558838 558.809143,1212.799072 
	C519.627136,1175.362915 482.993835,1135.597534 448.193237,1094.093750 
	C414.030945,1053.351074 382.357361,1010.751404 352.509552,966.768311 
	C339.571869,947.703552 318.637573,938.973267 297.149719,943.407959 
	C272.805939,948.432007 257.166992,963.770508 252.526382,987.366638 
	C251.953522,990.279358 251.891800,993.327820 251.893692,996.313232 
	C251.950012,1085.139771 251.968002,1173.966309 252.153412,1262.792725 
	C252.349594,1356.777344 252.750961,1450.761597 252.952988,1544.746338 
	C252.980499,1557.547607 253.598099,1570.526245 251.789703,1583.113525 
	C248.541290,1605.724121 227.375244,1624.634155 204.690399,1626.954468 
	C199.734421,1627.461304 194.732803,1627.741577 189.751694,1627.748535 
	C146.587402,1627.809204 103.423019,1627.773682 60.258659,1627.789673 
	C47.979683,1627.794189 36.465412,1624.951416 26.297617,1617.972168 
	C11.896480,1608.086914 3.748942,1594.321655 1.898800,1576.464966 
	C1.894148,1574.553467 1.992893,1573.057007 1.992913,1571.560425 
	C1.999457,1066.171509 1.999256,560.782532 1.997893,55.393612 
	C1.997890,54.560616 1.978950,53.727615 1.913884,52.425423 
	C3.732454,33.707455 12.249405,19.461805 28.039318,9.125183 
	C28.731560,8.829926 28.892902,8.668722 29.005301,8.458534 
	C29.164028,8.368191 29.322758,8.277846 29.944546,8.042133 
	C30.676922,7.776993 30.878212,7.585667 31.011480,7.322788 
	C31.166332,7.255240 31.321182,7.187692 31.931625,7.008134 
	C32.664669,6.780749 32.872417,6.589631 33.010468,6.322769 
	C33.165516,6.255225 33.320560,6.187682 33.926605,6.013806 
	C34.650047,5.803256 34.859283,5.624904 35.005314,5.372418 
	C35.191235,5.312913 35.377155,5.253407 36.118111,5.114453 
	C37.115376,4.759351 37.557610,4.483698 37.999847,4.208045 
	C38.162769,4.158964 38.325695,4.109883 39.027184,4.036859 
	C40.043266,3.744537 40.520779,3.476159 40.998295,3.207779 
	C41.168266,3.160555 41.338234,3.113331 42.041401,3.054108 
	C43.043133,2.815078 43.511669,2.588048 43.980202,2.361018 
	C44.435841,2.281255 44.891476,2.201492 45.694290,2.116610 
z"/>
<path fill="#C48F62" opacity="1.000000" stroke="none" 
	d="
M556.635986,401.369263 
	C535.540100,338.794403 518.537048,275.501648 506.519501,210.994476 
	C499.549622,173.581741 494.510498,135.801620 489.031494,98.124435 
	C487.727631,89.158295 486.844025,79.772705 488.007629,70.872971 
	C491.558929,43.710953 512.812012,23.947706 539.891113,21.959192 
	C551.491943,21.107302 563.177734,21.261192 574.825623,21.228802 
	C606.323914,21.141211 637.822693,21.232883 669.321167,21.183659 
	C683.901978,21.160872 697.753662,23.438095 709.840942,32.464497 
	C724.509033,43.418224 731.432861,58.350109 734.020264,76.146454 
	C744.447083,147.863434 759.762146,218.515778 781.015320,287.843079 
	C800.583313,351.673157 825.000061,413.536530 856.015076,472.712891 
	C887.383118,532.562744 924.693359,588.381165 969.569946,639.006958 
	C1022.120789,698.290344 1082.423462,748.059998 1151.558472,786.960144 
	C1205.914795,817.544800 1263.382446,840.226074 1324.036621,854.760376 
	C1333.062866,856.923340 1342.197876,858.710999 1351.355957,860.229309 
	C1375.382446,864.212524 1402.417725,849.074097 1410.846680,826.108154 
	C1413.822876,817.998962 1415.656372,808.962036 1415.665405,800.346191 
	C1415.917480,560.357605 1415.866699,320.368744 1415.868896,80.379951 
	C1415.869141,51.513996 1433.486450,29.129240 1461.509644,22.791361 
	C1466.487671,21.665514 1471.726807,21.280842 1476.847534,21.265362 
	C1516.678589,21.144943 1556.510376,21.150213 1596.341675,21.214235 
	C1628.221924,21.265478 1651.288818,40.438148 1656.538696,71.263458 
	C1657.176514,75.007774 1657.110229,78.898361 1657.110474,82.721184 
	C1657.134277,410.872559 1657.107422,739.023926 1657.184937,1067.175293 
	C1657.190552,1090.605713 1648.114380,1108.660034 1627.904541,1120.900513 
	C1616.751953,1127.655273 1604.358643,1128.963501 1591.821899,1128.701416 
	C1557.878662,1127.991821 1523.904663,1127.610596 1490.012939,1125.794434 
	C1398.705444,1120.901367 1308.962280,1106.232178 1221.176758,1080.366455 
	C1184.886841,1069.673828 1149.359741,1056.804443 1114.510376,1042.019043 
	C1082.037231,1028.241821 1050.409790,1012.745239 1019.690063,995.484436 
	C982.861694,974.791199 947.287170,952.003784 914.267273,925.621887 
	C889.074829,905.493713 864.085266,884.951965 840.547852,862.944641 
	C789.652161,815.357544 745.027161,762.241882 705.647522,704.712585 
	C671.986145,655.537048 642.475952,603.994019 616.775330,550.263916 
	C593.693787,502.009308 573.773438,452.460358 556.635986,401.369263 
z"/>
<path fill="#C48F62" opacity="1.000000" stroke="none" 
	d="
M1173.855469,121.030609 
	C1174.622192,159.657974 1175.340332,197.791031 1176.154541,235.922028 
	C1176.748169,263.724884 1177.483276,291.524658 1178.128906,319.326416 
	C1178.817017,348.960541 1179.446411,378.596069 1180.153442,408.229706 
	C1180.729248,432.366516 1181.461792,456.499786 1181.961426,480.638000 
	C1182.167480,490.597107 1177.108765,497.965729 1168.391357,501.240814 
	C1160.674805,504.139893 1152.379517,501.885834 1145.945679,494.697388 
	C1118.631470,464.179077 1091.413696,433.574402 1064.136230,403.023132 
	C1040.960327,377.065735 1017.734863,351.152740 994.561584,325.193024 
	C974.825867,303.084320 955.048523,281.011749 935.459167,258.773834 
	C926.357605,248.441681 927.796753,236.265915 938.143005,227.172348 
	C958.268066,209.483948 978.152222,191.521515 998.150818,173.689072 
	C1018.149353,155.856735 1038.176270,138.056213 1058.171631,120.220222 
	C1078.291870,102.272827 1098.391113,84.301788 1118.494141,66.335121 
	C1125.069946,60.458218 1131.525146,54.441372 1138.225098,48.710087 
	C1144.697388,43.173428 1152.130249,41.655411 1160.043457,45.174240 
	C1167.906494,48.670765 1171.934448,54.888374 1172.160522,63.623573 
	C1172.651123,82.596046 1173.277466,101.565010 1173.855469,121.030609 
z"/>
<path fill="#646363" opacity="1.000000" stroke="none" 
	d="
M112.542068,1833.541504 
	C102.699776,1814.041382 93.286972,1794.738037 83.253723,1775.762695 
	C79.422112,1768.516357 74.169342,1762.021362 69.564217,1755.183960 
	C69.113304,1755.388184 68.662384,1755.592407 68.211472,1755.796753 
	C68.211472,1810.159180 68.211472,1864.521606 68.211472,1919.849731 
	C62.674965,1919.505615 57.467545,1919.856079 52.618660,1918.701172 
	C47.208069,1917.412231 44.201614,1912.945312 43.066727,1907.526001 
	C42.593121,1905.264526 42.443924,1902.898560 42.442577,1900.579956 
	C42.409779,1844.092285 42.415123,1787.604614 42.426552,1731.116943 
	C42.426849,1729.646973 42.571964,1728.177124 42.650856,1726.682251 
	C61.823841,1723.903320 78.377663,1728.275513 90.760956,1743.498657 
	C95.868927,1749.778198 100.499413,1756.665283 104.134415,1763.886475 
	C122.024216,1799.426025 139.461487,1835.193115 157.183777,1870.817505 
	C159.742691,1875.961426 162.980118,1880.767700 167.043152,1885.407349 
	C167.043152,1832.591187 167.043152,1779.775024 167.043152,1726.440308 
	C171.907608,1726.440308 176.224625,1726.057739 180.446396,1726.528809 
	C187.001373,1727.260254 191.656174,1732.843750 191.825943,1739.668701 
	C191.958496,1744.997681 191.854507,1750.332397 191.854523,1755.664551 
	C191.854691,1808.153076 191.854630,1860.641602 191.854630,1913.130127 
	C191.854630,1915.093140 191.854630,1917.056030 191.854630,1919.166382 
	C177.249069,1921.223145 165.167313,1917.114746 155.052643,1907.098511 
	C145.565765,1897.703735 139.082993,1886.235718 133.056198,1874.520752 
	C126.125771,1861.048828 119.488739,1847.426147 112.542068,1833.541504 
z"/>
<path fill="#636262" opacity="1.000000" stroke="none" 
	d="
M1221.003052,1777.000000 
	C1221.003052,1824.643311 1221.003052,1871.786499 1221.003052,1918.866943 
	C1204.032959,1922.791870 1194.364624,1912.482422 1194.822144,1898.519775 
	C1195.498291,1877.880981 1194.996704,1857.203613 1194.996704,1836.542603 
	C1194.996704,1834.746216 1194.996826,1832.949951 1194.996826,1830.886475 
	C1162.606445,1830.886475 1130.679443,1830.886475 1098.197754,1830.886475 
	C1098.197754,1860.236938 1098.197754,1889.626343 1098.197754,1919.779297 
	C1093.042969,1919.526245 1088.301636,1919.955933 1083.903809,1918.923340 
	C1077.180420,1917.344971 1073.168579,1912.519775 1071.986450,1905.634277 
	C1071.594360,1903.350220 1071.444458,1900.998047 1071.443237,1898.676880 
	C1071.414307,1842.858887 1071.418945,1787.041016 1071.429077,1731.223022 
	C1071.429443,1729.748535 1071.556885,1728.273926 1071.650391,1726.252319 
	C1077.276245,1726.252319 1082.745117,1725.811890 1088.109863,1726.370605 
	C1094.013916,1726.985596 1097.977783,1732.907227 1097.990601,1740.096924 
	C1098.026489,1760.091431 1098.003174,1780.085938 1098.003296,1800.080444 
	C1098.003296,1801.885864 1098.003174,1803.691284 1098.003174,1805.817383 
	C1130.380371,1805.817383 1162.422119,1805.817383 1194.837036,1805.817383 
	C1194.837036,1779.452637 1194.837036,1753.183350 1194.837036,1726.370483 
	C1200.434326,1726.370483 1205.756348,1725.818848 1210.910522,1726.513184 
	C1217.049194,1727.340210 1221.042358,1733.021851 1221.046875,1739.510986 
	C1221.055664,1751.840698 1221.020142,1764.170288 1221.003052,1777.000000 
z"/>
<path fill="#646363" opacity="1.000000" stroke="none" 
	d="
M659.894409,1757.059326 
	C684.068481,1809.041748 702.428894,1862.498413 712.581848,1920.072632 
	C706.040222,1919.483521 700.237976,1919.565552 694.746765,1918.298950 
	C689.115295,1917.000000 686.270874,1912.401367 684.858215,1906.819824 
	C682.083496,1895.856201 678.965515,1884.978882 676.251648,1874.000977 
	C675.586914,1871.312134 674.414429,1870.575806 671.836426,1870.581909 
	C644.175049,1870.646973 616.513184,1870.684204 588.852356,1870.537109 
	C585.648438,1870.520020 584.979248,1872.089966 584.377014,1874.539795 
	C580.727112,1889.387939 577.009766,1904.219604 573.205139,1919.497437 
	C569.186829,1919.497437 564.849854,1919.859619 560.600159,1919.405640 
	C555.303528,1918.839722 551.666565,1914.705933 552.143738,1908.801147 
	C552.877380,1899.720581 553.715149,1890.495483 555.996277,1881.718384 
	C568.080933,1835.221558 583.511658,1789.911377 606.149109,1747.346924 
	C609.575745,1740.904053 613.846191,1734.882202 618.079407,1728.916016 
	C619.100647,1727.476685 621.447510,1726.516113 623.324097,1726.220947 
	C635.444336,1724.314453 643.807922,1730.085327 649.905029,1739.916870 
	C653.324280,1745.430542 656.468628,1751.114502 659.894409,1757.059326 
M621.375061,1766.930298 
	C608.808289,1792.492432 599.134521,1819.112305 591.533813,1846.937134 
	C617.488342,1846.937134 642.776794,1846.937134 668.076599,1846.937134 
	C667.253113,1832.942993 640.844849,1766.161133 630.238831,1751.159058 
	C629.870117,1751.483521 629.380798,1751.731445 629.170288,1752.127441 
	C626.669861,1756.831909 624.210815,1761.558350 621.375061,1766.930298 
z"/>
<path fill="#646363" opacity="1.000000" stroke="none" 
	d="
M1637.578247,1883.310791 
	C1638.832031,1875.269409 1640.792847,1867.578003 1640.848267,1859.872925 
	C1641.153931,1817.379272 1640.994507,1774.882324 1640.994507,1732.386475 
	C1640.994507,1730.559326 1640.994507,1728.732300 1640.994507,1725.988525 
	C1646.103149,1726.249634 1651.114258,1725.913818 1655.858521,1726.883667 
	C1663.413574,1728.428101 1666.830444,1734.244629 1666.841919,1744.190796 
	C1666.876465,1774.021240 1666.934570,1803.851929 1666.819458,1833.681885 
	C1666.767456,1847.166626 1666.933838,1860.694702 1665.939575,1874.124512 
	C1663.782715,1903.260620 1642.473511,1922.659790 1613.199951,1922.508057 
	C1607.292969,1922.477539 1601.139038,1921.829590 1595.539917,1920.066406 
	C1580.980591,1915.481934 1574.753418,1903.575684 1578.167847,1887.942871 
	C1578.904785,1888.223022 1579.710693,1888.333008 1580.260498,1888.767456 
	C1591.814819,1897.898071 1605.224121,1899.058105 1619.076294,1897.377563 
	C1627.569092,1896.347046 1633.806152,1891.583130 1637.578247,1883.310791 
z"/>
<path fill="#CEA684" opacity="1.000000" stroke="none" 
	d="
M37.714321,4.153936 
	C37.557610,4.483698 37.115376,4.759351 36.404255,5.052294 
	C36.566513,4.746331 36.997654,4.423079 37.714321,4.153936 
z"/>
<path fill="#CEA684" opacity="1.000000" stroke="none" 
	d="
M40.705528,3.151114 
	C40.520779,3.476159 40.043266,3.744537 39.280296,4.004015 
	C39.467484,3.694892 39.940121,3.394670 40.705528,3.151114 
z"/>
<path fill="#CEA684" opacity="1.000000" stroke="none" 
	d="
M43.703896,2.269974 
	C43.511669,2.588048 43.043133,2.815078 42.304985,3.030742 
	C42.499439,2.739227 42.963512,2.459078 43.703896,2.269974 
z"/>
<path fill="#CEA684" opacity="1.000000" stroke="none" 
	d="
M28.802362,8.428741 
	C28.892902,8.668722 28.731560,8.829926 28.359123,9.002828 
	C28.178188,8.749195 28.312338,8.527676 28.802362,8.428741 
z"/>
<path fill="#CEA684" opacity="1.000000" stroke="none" 
	d="
M30.776669,7.299233 
	C30.878212,7.585667 30.676922,7.776993 30.201063,7.945944 
	C30.030725,7.643969 30.213171,7.404154 30.776669,7.299233 
z"/>
<path fill="#CEA684" opacity="1.000000" stroke="none" 
	d="
M32.773872,6.297697 
	C32.872417,6.589631 32.664669,6.780749 32.175217,6.938259 
	C32.010571,6.627592 32.201923,6.391669 32.773872,6.297697 
z"/>
<path fill="#CEA684" opacity="1.000000" stroke="none" 
	d="
M34.773018,5.329583 
	C34.859283,5.624904 34.650047,5.803256 34.170452,5.943861 
	C34.010201,5.627778 34.202675,5.396610 34.773018,5.329583 
z"/>
<path fill="#FEFEFE" opacity="1.000000" stroke="none" 
	d="
M621.557983,1766.604736 
	C624.210815,1761.558350 626.669861,1756.831909 629.170288,1752.127441 
	C629.380798,1751.731445 629.870117,1751.483521 630.238831,1751.159058 
	C640.844849,1766.161133 667.253113,1832.942993 668.076599,1846.937134 
	C642.776794,1846.937134 617.488342,1846.937134 591.533813,1846.937134 
	C599.134521,1819.112305 608.808289,1792.492432 621.557983,1766.604736 
z"/>
</svg>